<?xml version="1.0"?>
<svg xmlns="http://www.w3.org/2000/svg" height="512px" viewBox="0 0 512 512" width="512px"><path d="m347 60c16.542969 0 30-13.457031 30-30s-13.457031-30-30-30-30 13.457031-30 30 13.457031 30 30 30zm0 0" fill="#D80027"/><path d="m257 75c16.542969 0 30-13.457031 30-30s-13.457031-30-30-30-30 13.457031-30 30 13.457031 30 30 30zm0 0" fill="#D80027"/><path d="m182 120c16.542969 0 30-13.457031 30-30s-13.457031-30-30-30-30 13.457031-30 30 13.457031 30 30 30zm0 0" fill="#D80027"/><path d="m152 195c16.542969 0 30-13.457031 30-30s-13.457031-30-30-30-30 13.457031-30 30 13.457031 30 30 30zm0 0" fill="#D80027"/><path d="m452 0c-33.085938 0-60 26.914062-60 60s26.914062 60 60 60 60-26.914062 60-60-26.914062-60-60-60zm0 90c-16.542969 0-30-13.457031-30-30s13.457031-30 30-30 30 13.457031 30 30-13.457031 30-30 30zm0 0" fill="#D80027"/><path d="m381.128906 107.371094c-12.894531-7.039063-31.535156-9.929688-52.5-8.136719-15.402344 1.316406-39.050781 5.800781-64.226562 19.6875-45.101563 24.875-73.328125 68.253906-80.492188 123.078125h-18.910156c-3.246094 0-6.402344 1.054688-9 3l-116 87h-25c-8.285156 0-15 6.714844-15 15v150c0 8.285156 6.714844 15 15 15h131.601562c3.980469 0 7.792969-1.578125 10.605469-4.394531l54.800781-54.796875c6.757813 13.902344 16.542969 26.300781 28.707032 36.070312 18.566406 14.910156 41.910156 23.121094 65.734375 23.121094 19.855469 0 35.519531-6.257812 46.558593-18.601562 25.019532-27.980469 19.152344-80.34375 13.480469-130.984376-4.890625-43.671874-10.433593-93.171874 9.273438-103.023437 27.964843-13.980469 45.714843-43.652344 46.320312-77.429687.585938-32.390626-14.726562-60.273438-40.953125-74.589844zm-240.738281 374.628906h-110.390625v-120h15c3.246094 0 6.402344-1.054688 9-3l116-87h13.757812l8.191407 65.53125-51.6875 44.113281c-6.300781 5.378907-7.046875 14.847657-1.671875 21.148438 5.378906 6.300781 14.847656 7.046875 21.148437 1.671875l52.570313-44.871094c4.136718-1.226562 7.445312-4.144531 9.238281-7.882812l30.140625-25.722657c3.488281-2.976562 7.910156-4.269531 12.457031-3.636719 4.546875.628907 8.449219 3.082032 10.996094 6.898438 4.171875 6.257812 3.339844 14.660156-1.980469 19.976562zm251.699219-300.578125c-.40625 22.570313-11.804688 42.167969-29.746094 51.136719-18.207031 9.101562-28.050781 27.824218-30.089844 57.234375-1.5625 22.519531 1.480469 49.6875 4.421875 75.960937 4.707031 42.03125 10.042969 89.667969-6.03125 107.644532-5.175781 5.789062-13.089843 8.601562-24.195312 8.601562-33.125 0-61.652344-21.152344-71.457031-52.175781l59.382812-59.382813c15.394531-15.398437 17.804688-39.71875 5.726562-57.832031-7.261718-10.890625-18.859374-18.171875-31.824218-19.972656-12.96875-1.804688-26.105469 2.035156-36.0625 10.53125l-12.945313 11.046875-6.890625-55.148438c.046875-.351562.082032-.707031.105469-1.0625 0 0 .027344-.457031.03125-.488281 4.253906-64.910156 38.421875-96.910156 66.375-112.324219 36.957031-20.382812 74.277344-18.90625 87.867187-11.492187 16.238282 8.867187 25.710938 26.707031 25.332032 47.722656zm0 0" fill="#D80027"/></svg>
