<?xml version="1.0" encoding="iso-8859-1"?>
<!-- Generator: Adobe Illustrator 18.1.1, SVG Export Plug-In . SVG Version: 6.00 Build 0)  -->
<svg xmlns="http://www.w3.org/2000/svg" xmlns:xlink="http://www.w3.org/1999/xlink" version="1.1" id="Capa_1" x="0px" y="0px" viewBox="0 0 19.384 19.384" style="enable-background:new 0 0 19.384 19.384;" xml:space="preserve" width="512px" height="512px">
<g>
	<g>
		<path d="M17.575,5.917l-5.296,0.786l-1.49,0.71L9.595,7.477L6.878,8.218    C6.732,7.697,6.379,7.281,5.907,7.011C5.31,6.67,4.528,6.564,3.742,6.777C2.33,7.161,1.448,8.434,1.771,9.622    c0.143,0.526,0.5,0.944,0.975,1.217c0.596,0.341,1.38,0.448,2.164,0.235c0.346-0.094,0.659-0.241,0.929-0.428l0,0    c0.002-0.002,0.004-0.004,0.008-0.004c0.021-0.017,0.044-0.032,0.067-0.051C7.55,9.379,8.679,9.053,9.317,8.984    c-0.07,0.638-0.396,1.767-1.608,3.403c-0.018,0.022-0.034,0.046-0.051,0.066c0,0.004-0.002,0.005-0.002,0.008l0,0    c-0.187,0.271-0.334,0.584-0.429,0.929c-0.212,0.785-0.106,1.568,0.235,2.166c0.271,0.474,0.691,0.831,1.218,0.974    c0.018,0.006,0.036,0.008,0.054,0.012c0.033,0.648,0.251,1.713,1.192,2.674c0.001,0.001,0.002,0.002,0.003,0.004    c0.219,0.217,0.571,0.219,0.791,0.004c0.222-0.217,0.226-0.573,0.009-0.794c-0.707-0.72-0.856-1.508-0.876-1.954    c0.759-0.27,1.413-0.974,1.671-1.916c0.213-0.786,0.106-1.568-0.235-2.166c-0.269-0.471-0.686-0.825-1.205-0.969l0.739-2.719    c0.578-0.192,2.41-0.675,2.41-0.675s3.391-1.449,4.066-1.632C17.945,6.008,17.575,5.917,17.575,5.917z M4.597,9.919    C4.152,10.041,3.681,9.997,3.34,9.801c-0.151-0.086-0.345-0.24-0.415-0.493C2.779,8.769,3.298,8.139,4.057,7.932    C4.508,7.81,4.967,7.851,5.314,8.05c0.15,0.085,0.345,0.242,0.414,0.494C5.875,9.083,5.356,9.714,4.597,9.919z M10.252,12.988    c0.197,0.347,0.24,0.806,0.117,1.257c-0.207,0.76-0.836,1.277-1.376,1.131C8.74,15.308,8.586,15.113,8.5,14.963    c-0.195-0.343-0.239-0.813-0.118-1.258c0.207-0.76,0.837-1.278,1.376-1.132C10.009,12.643,10.166,12.839,10.252,12.988z" fill="#D80027"/>
		<path d="M11.642,5.597l0.694-5.454c0,0-0.145-0.503-0.385,0.375c-0.128,0.474-1.701,4.253-1.701,4.253    S9.779,6.39,9.595,6.943l1.194-0.063L11.642,5.597z" fill="#D80027"/>
	</g>
</g>
<g>
</g>
<g>
</g>
<g>
</g>
<g>
</g>
<g>
</g>
<g>
</g>
<g>
</g>
<g>
</g>
<g>
</g>
<g>
</g>
<g>
</g>
<g>
</g>
<g>
</g>
<g>
</g>
<g>
</g>
</svg>
