<?xml version="1.0"?>
<svg xmlns="http://www.w3.org/2000/svg" height="512px" viewBox="-28 0 480 480" width="512px"><path d="m352 64c13.25.015625 23.984375 10.75 24 24 0 4.417969 3.582031 8 8 8s8-3.582031 8-8c.015625-13.25 10.75-23.984375 24-24 4.417969 0 8-3.582031 8-8s-3.582031-8-8-8c-13.25-.015625-23.984375-10.75-24-24 0-4.417969-3.582031-8-8-8s-8 3.582031-8 8c-.015625 13.25-10.75 23.984375-24 24-4.417969 0-8 3.582031-8 8s3.582031 8 8 8zm32-16.023438c2.28125 3.039063 4.984375 5.738282 8.023438 8.023438-3.039063 2.285156-5.738282 4.984375-8.023438 8.023438-2.285156-3.039063-4.984375-5.738282-8.023438-8.023438 3.039063-2.285156 5.738282-4.984375 8.023438-8.023438zm0 0" fill="#D80027"/><path d="m8 128c13.25.015625 23.984375 10.75 24 24 0 4.417969 3.582031 8 8 8s8-3.582031 8-8c.015625-13.25 10.75-23.984375 24-24 4.417969 0 8-3.582031 8-8s-3.582031-8-8-8c-13.25-.015625-23.984375-10.75-24-24 0-4.417969-3.582031-8-8-8s-8 3.582031-8 8c-.015625 13.25-10.75 23.984375-24 24-4.417969 0-8 3.582031-8 8s3.582031 8 8 8zm32-16.023438c2.285156 3.039063 4.984375 5.738282 8.023438 8.023438-3.039063 2.285156-5.738282 4.984375-8.023438 8.023438-2.285156-3.039063-4.984375-5.738282-8.023438-8.023438 3.039063-2.285156 5.738282-4.984375 8.023438-8.023438zm0 0" fill="#D80027"/><path d="m160 112c4.417969 0 8-3.582031 8-8 .027344-26.496094 21.503906-47.972656 48-48 4.417969 0 8-3.582031 8-8s-3.582031-8-8-8c-35.328125.039062-63.960938 28.671875-64 64 0 4.417969 3.582031 8 8 8zm0 0" fill="#D80027"/><path d="m306.96875 407.980469c-53.242188-21.40625-112.695312-21.40625-165.9375 0-2.660156 1.054687-4.558594 3.453125-4.96875 6.285156s.722656 5.671875 2.972656 7.4375c2.253906 1.769531 5.277344 2.199219 7.933594 1.128906 49.433594-19.867187 104.628906-19.867187 154.0625 0 2.65625 1.070313 5.679688.640625 7.933594-1.128906 2.25-1.765625 3.382812-4.605469 2.972656-7.4375-.414062-2.832031-2.308594-5.230469-4.96875-6.285156zm0 0" fill="#D80027"/><path d="m306.96875 359.980469c-53.242188-21.40625-112.695312-21.40625-165.9375 0-2.660156 1.054687-4.558594 3.453125-4.96875 6.285156s.722656 5.671875 2.972656 7.4375c2.253906 1.769531 5.277344 2.199219 7.933594 1.128906 49.433594-19.867187 104.628906-19.867187 154.0625 0 2.65625 1.070313 5.679688.640625 7.933594-1.128906 2.25-1.765625 3.382812-4.605469 2.972656-7.4375-.414062-2.832031-2.308594-5.230469-4.96875-6.285156zm0 0" fill="#D80027"/><path d="m64 232v240c0 4.417969 3.582031 8 8 8h304c4.417969 0 8-3.582031 8-8v-240c.128906-42.800781-17.019531-83.84375-47.5625-113.832031-.128906-.128907-.300781-.167969-.4375-.285157v-5.882812c0-61.855469-50.144531-112-112-112s-112 50.144531-112 112v5.820312c-30.808594 29.984376-48.132812 71.1875-48 114.179688zm304 0v232h-288v-232c-.082031-32.90625 11.222656-64.828125 32-90.347656v122.347656c.027344 22.082031 17.917969 39.972656 40 40h144c22.082031-.027344 39.972656-17.917969 40-40v-122.417969c20.777344 25.546875 32.082031 57.488281 32 90.417969zm-240-120c0-53.019531 42.980469-96 96-96s96 42.980469 96 96v152c-.015625 13.25-10.75 23.984375-24 24h-144c-13.25-.015625-23.984375-10.75-24-24zm0 0" fill="#D80027"/></svg>
