<?xml version="1.0" encoding="UTF-8"?>
<!DOCTYPE svg PUBLIC "-//W3C//DTD SVG 1.1//EN" "http://www.w3.org/Graphics/SVG/1.1/DTD/svg11.dtd">
<!-- Creator: CorelDRAW X7 -->
<svg xmlns="http://www.w3.org/2000/svg" xml:space="preserve" width="239.226mm" height="126.808mm" version="1.1" style="shape-rendering:geometricPrecision; text-rendering:geometricPrecision; image-rendering:optimizeQuality; fill-rule:evenodd; clip-rule:evenodd"
viewBox="0 0 6691 3547"
 xmlns:xlink="http://www.w3.org/1999/xlink">
 <defs>
  <style type="text/css">
   <![CDATA[
    .str0 {stroke:#373435;stroke-width:0.559381}
    .fil3 {fill:none}
    .fil4 {fill:#848688}
    .fil2 {fill:#373435}
    .fil0 {fill:url(#id0)}
    .fil1 {fill:url(#id1)}
   ]]>
  </style>
  <linearGradient id="id0" gradientUnits="userSpaceOnUse" x1="1202.51" y1="1444.03" x2="2804.71" y2="1444.03">
   <stop offset="0" style="stop-opacity:1; stop-color:#9A9595"/>
   <stop offset="0.501961" style="stop-opacity:1; stop-color:#AAA6A8"/>
   <stop offset="1" style="stop-opacity:1; stop-color:#9A9595"/>
  </linearGradient>
  <linearGradient id="id1" gradientUnits="userSpaceOnUse" x1="929.672" y1="922.005" x2="1543.34" y2="922.005">
   <stop offset="0" style="stop-opacity:1; stop-color:#6B6665"/>
   <stop offset="0.501961" style="stop-opacity:1; stop-color:#817C7E"/>
   <stop offset="1" style="stop-opacity:1; stop-color:#6B6665"/>
  </linearGradient>
 </defs>
 <g id="Layer_x0020_1">
  <metadata id="CorelCorpID_0Corel-Layer"/>
  <path class="fil0" d="M1906 0c-26,276 -188,557 -427,889 -341,474 -389,903 -16,1194 86,341 249,577 518,659 286,87 558,82 824,146 -224,-134 -364,-345 -462,-593 -78,-198 -378,-263 -779,-247 344,-207 635,-471 724,-933 28,-323 -101,-696 -382,-1115z"/>
  <path class="fil1" d="M930 123c289,102 507,261 613,511 -243,303 -439,659 -397,1087 -134,-230 -216,-496 -107,-916 62,-239 30,-471 -109,-682z"/>
  <path class="fil2" d="M1117 1210c-58,235 -17,479 108,653 -116,-116 -202,-335 -179,-625 7,-99 94,-120 71,-28z"/>
  <path class="fil2" d="M957 1193c-32,222 39,457 166,588 -118,-98 -222,-303 -219,-559 1,-88 64,-112 53,-29z"/>
  <path class="fil2" d="M405 1892c0,0 185,154 332,184 144,43 371,60 485,154 91,74 160,119 210,216 50,98 217,167 262,198 46,30 195,126 231,180 36,54 45,127 9,165 -36,37 -79,25 -161,-46 -78,-66 -246,-137 -306,-169 -60,-31 -246,-145 -246,-145 3,-1 228,116 269,130 50,18 147,72 201,104 54,31 148,102 168,109 19,8 72,4 49,-54 -22,-59 -150,-159 -256,-216 -107,-57 -251,-192 -272,-225 -21,-33 -164,-232 -382,-284 -237,-57 -429,-97 -593,-301z"/>
  <path class="fil2" d="M1248 2676c-3,17 34,345 336,508 178,96 594,191 627,355 -6,-100 -32,-175 -239,-246 -236,-82 -471,-193 -526,-321 -121,-281 -202,-296 -198,-296z"/>
  <path class="fil3" d="M1544 3045c80,18 220,37 363,-7 92,-28 176,-29 235,2 14,7 18,26 1,27 -27,0 -48,9 -65,14 43,11 96,15 138,31 32,13 24,41 4,44 -31,3 -62,5 -94,8 79,42 102,54 152,106 38,40 29,109 -19,90 -82,-32 -167,-58 -265,-73 84,-1 173,9 244,35 19,6 27,-11 -1,-31 -95,-68 -206,-95 -328,-107 -142,-15 -278,-72 -365,-139z"/>
  <path class="fil2" d="M0 2163c13,2 530,70 835,542 306,473 492,512 819,623 327,112 482,181 508,219 -94,-29 -271,-113 -631,-202 -360,-89 -589,-317 -687,-440 -98,-123 -282,-342 -420,-481 -139,-138 -419,-259 -424,-261z"/>
  <path class="fil2" d="M1150 1946c-8,-12 -20,-59 22,-53 41,6 153,152 201,217 48,65 97,164 116,225 19,60 18,57 -17,40 -35,-18 -94,-59 -106,-118 -11,-59 -27,-134 -46,-161 -19,-28 -35,-71 -83,-83 -48,-13 -87,-67 -87,-67z"/>
  <path class="fil2 str0" d="M3321 1028c-2,0 -9,2 -20,5 -40,13 -79,37 -116,73 -42,40 -90,107 -146,202 -38,65 -70,114 -97,148 -39,49 -82,89 -129,119 -81,53 -166,79 -255,79 -48,0 -87,-8 -118,-25 -40,-22 -59,-55 -56,-99 2,-21 9,-39 22,-54 13,-17 30,-25 50,-25 18,0 32,6 43,17 11,11 16,26 14,44 -1,15 -6,27 -14,38 -10,11 -21,17 -34,17 4,51 36,76 97,76 58,0 115,-27 170,-83 36,-37 79,-97 130,-181 55,-90 92,-147 113,-172 28,-33 59,-61 92,-84 58,-40 135,-72 231,-96l-1 -2c-80,-5 -150,-8 -209,-8 -127,0 -228,6 -304,19 -131,21 -222,62 -274,122 -25,29 -38,58 -40,86 -3,37 12,66 45,87 27,18 60,27 98,27 54,0 107,-16 158,-47 58,-35 89,-79 93,-132 1,-20 -2,-43 -11,-68l7 -4c10,23 15,49 12,80 -4,63 -34,116 -88,159 -51,41 -108,62 -171,62 -50,0 -89,-14 -117,-43 -28,-28 -40,-68 -36,-119 3,-37 17,-72 42,-107 26,-35 61,-66 107,-95 132,-83 328,-125 586,-125 27,0 68,1 122,3 54,2 95,3 123,3 40,0 68,3 83,11 17,9 25,22 23,39 -2,37 -48,56 -136,56 -10,0 -25,0 -45,-2 -19,-1 -34,-1 -44,-1z"/>
  <path class="fil2" d="M3093 1573c-1,2 -2,5 -2,6 -1,16 10,25 24,31 15,6 32,9 49,9 31,0 60,-9 88,-24 53,-28 104,-80 143,-124 43,-49 84,-103 123,-154 75,-100 173,-223 273,-299 70,-53 148,-92 232,-117l8 -2 8 27 -6 3c-59,31 -106,80 -142,136 -35,54 -66,122 -92,181 -41,92 -97,201 -166,284 77,-70 151,-160 212,-237 70,-88 154,-190 241,-261 92,-74 198,-126 318,-126 19,0 53,3 51,30 -1,18 -18,24 -34,24 -14,0 -31,-4 -44,-7 -13,-2 -28,-6 -41,-6 -31,0 -67,40 -85,62 -51,62 -95,153 -129,225 -38,80 -84,173 -139,243 -50,63 -110,112 -182,145 175,-8 300,-104 388,-257l4 -7 21 13 -4 6c-97,169 -239,270 -438,270 -11,0 -22,0 -33,0 -23,7 -48,12 -72,12 -19,0 -38,-6 -37,-29 1,-17 14,-24 30,-24 15,0 31,3 46,7 10,2 26,6 36,6 20,0 44,-30 54,-45 37,-50 72,-128 99,-184 28,-60 61,-119 93,-178 66,-103 151,-187 256,-247 -89,34 -169,102 -232,169 -82,97 -163,195 -245,292 -75,89 -173,186 -279,235l-5 3 -19 -19 5 -6c38,-48 68,-118 90,-175 21,-56 45,-112 69,-167 62,-126 146,-237 262,-313 -93,52 -174,126 -242,206 -43,49 -83,104 -122,156 -50,67 -106,141 -166,199 -58,55 -136,114 -220,114 -36,0 -71,-8 -100,-30 -32,-23 -47,-55 -44,-95 2,-22 9,-43 23,-59 15,-19 34,-28 58,-28 18,0 34,5 47,18 13,14 18,30 16,48 -2,30 -20,49 -47,60z"/>
  <path class="fil2 str0" d="M3023 1908l-197 370c-18,33 -26,60 -26,81 0,18 7,28 22,28 24,0 48,-17 73,-52 26,-34 45,-78 59,-132 -3,-9 -5,-18 -5,-24 0,-31 13,-46 40,-46 12,0 22,5 28,17 7,11 10,23 10,37 0,9 -1,19 -3,32 13,15 27,23 40,23 20,0 39,-13 56,-39l3 3c-17,28 -36,42 -59,42 -15,0 -29,-7 -41,-21 -11,44 -36,83 -75,116 -39,33 -79,49 -119,49 -22,0 -41,-6 -57,-19 -17,-15 -26,-34 -26,-58 0,-24 13,-62 41,-114l0 -1 148 -284 88 -8z"/>
  <path class="fil2 str0" d="M3152 2279c-2,21 -2,31 -2,30 0,42 16,63 49,63 51,0 113,-56 186,-170l3 3c-78,126 -156,189 -233,189 -25,0 -45,-7 -59,-22 -16,-15 -23,-37 -23,-64 0,-21 5,-42 15,-63 16,-34 41,-61 75,-83 34,-21 68,-32 102,-32 35,0 53,15 53,44 0,22 -12,41 -37,57 -24,16 -67,32 -129,48zm1 -6c28,-7 52,-20 72,-39 23,-23 34,-49 34,-79 0,-12 -4,-18 -13,-18 -13,0 -30,13 -49,40 -20,26 -34,58 -44,96z"/>
  <path class="fil2 str0" d="M3567 2178l17 -36 84 -6c-70,127 -105,201 -105,222 0,11 4,17 13,17 29,0 80,-58 155,-173l3 3c-77,125 -138,187 -181,187 -36,0 -54,-21 -54,-65 0,-3 0,-7 0,-10 -12,20 -27,38 -44,51 -20,16 -39,24 -59,24 -18,0 -33,-7 -43,-22 -11,-14 -16,-31 -16,-53 0,-47 20,-90 58,-129 38,-39 77,-58 119,-58 31,0 49,16 53,48zm-40 -41c-24,0 -49,25 -76,74 -25,46 -37,84 -37,114 0,24 9,37 27,37 22,0 46,-25 72,-75 25,-46 37,-83 37,-111 0,-26 -8,-39 -23,-39z"/>
  <path class="fil2 str0" d="M3844 2138l-77 142c-18,34 -27,59 -27,74 0,12 5,18 14,18 26,0 58,-32 98,-98 12,-20 35,-64 69,-132l84 -4 -81 155c-16,31 -24,53 -24,66 0,12 5,18 14,18 19,0 47,-25 84,-73 24,-30 47,-64 69,-101l4 3c-33,53 -59,91 -79,115 -40,49 -76,73 -106,73 -15,0 -26,-6 -35,-17 -9,-10 -14,-24 -14,-41 0,-10 2,-20 6,-31l-3 -3c-43,61 -82,92 -116,92 -31,0 -47,-19 -47,-57 0,-23 11,-55 33,-98l50 -98 84 -3z"/>
  <path class="fil2 str0" d="M4229 2044l-54 99 83 0 -5 7 -82 0 -63 129c-15,30 -22,54 -22,72 0,17 6,25 20,25 26,0 58,-23 99,-69 27,-31 53,-66 78,-106l4 2c-76,126 -145,189 -209,189 -39,0 -59,-22 -59,-64 0,-17 8,-43 24,-77l48 -101 -51 0 6 -7 50 0 49 -94 84 -5z"/>
  <path class="fil2 str0" d="M4554 2138l-120 235c62,-27 122,-84 182,-171l3 2c-59,91 -122,150 -189,177 -69,147 -165,221 -289,221 -31,0 -58,-7 -79,-21 -27,-17 -40,-42 -40,-75 0,-29 12,-52 36,-66 19,-12 43,-19 72,-19 11,0 24,2 39,5l-1 4c-4,0 -9,0 -16,0 -19,0 -34,7 -46,22 -10,14 -15,33 -15,55 0,24 6,44 19,61 13,17 29,26 50,26 34,0 68,-23 103,-67 16,-20 40,-58 73,-116 30,-52 52,-90 68,-116l-5 -4c-45,68 -86,102 -123,102 -32,0 -47,-19 -47,-57 0,-22 11,-54 33,-98l50 -97 84 -3 -77 143c-18,33 -27,57 -27,72 0,12 5,19 14,19 15,0 35,-14 59,-42 19,-23 39,-53 58,-90 2,-4 17,-37 47,-99l84 -3z"/>
  <path class="fil2 str0" d="M4850 2172c-17,8 -30,21 -40,41 -9,19 -14,39 -14,60 0,26 6,48 19,66 13,20 31,30 53,30 19,0 35,-5 47,-15 -44,-35 -66,-88 -66,-157 0,-2 1,-10 1,-25zm57 -20c5,68 24,120 58,157 7,-6 18,-21 32,-44 22,-34 39,-58 50,-70 22,-25 45,-38 67,-38 13,0 24,4 33,13 10,9 14,21 14,35 0,11 -3,20 -10,28 -7,8 -15,12 -25,12 -8,0 -16,-3 -21,-10 -6,-6 -9,-14 -9,-24 0,-10 3,-19 10,-27 -5,-4 -10,-6 -16,-6 -14,0 -36,19 -65,56 -19,27 -38,53 -56,79 31,39 71,58 119,58 32,0 60,-9 84,-27 25,-20 42,-46 52,-80l4 1c-10,42 -35,75 -73,99 -34,21 -72,32 -114,32 -48,0 -88,-13 -121,-39 -36,27 -69,41 -99,41 -25,0 -46,-9 -63,-26 -16,-18 -25,-41 -25,-70 0,-58 40,-104 119,-136 6,-42 22,-79 48,-111 27,-36 59,-53 94,-53 12,0 22,4 30,12 8,8 12,19 12,32 0,28 -16,52 -49,72 -17,10 -43,22 -80,34zm1 -5c21,-6 38,-17 52,-35 14,-18 21,-40 21,-64 0,-22 -7,-33 -21,-33 -12,0 -24,13 -35,39 -12,26 -17,57 -17,93z"/>
  <path class="fil2 str0" d="M5730 2196l5 3c-34,54 -60,93 -79,116 -41,52 -75,77 -103,77 -16,0 -28,-6 -37,-17 -8,-12 -13,-26 -13,-45 0,-19 7,-41 19,-65 4,-8 16,-26 35,-57 13,-19 19,-33 19,-42 0,-12 -7,-19 -20,-19 -18,0 -43,22 -77,66 -33,44 -65,99 -95,167l-84 4 124 -246 85 -3 -86 141 5 4c66,-103 120,-154 163,-154 15,0 27,5 37,15 10,11 15,24 15,40 0,17 -13,48 -39,93 -26,45 -39,72 -39,82 0,11 4,17 12,17 28,0 79,-59 153,-177z"/>
  <path class="fil2 str0" d="M5909 2178l17 -36 84 -6c-70,127 -106,201 -106,222 0,11 5,17 14,17 29,0 80,-58 155,-173l3 3c-77,125 -138,187 -181,187 -36,0 -54,-21 -54,-65 0,-3 0,-7 0,-10 -12,20 -27,38 -44,51 -20,16 -40,24 -59,24 -18,0 -33,-7 -44,-22 -10,-14 -15,-31 -15,-53 0,-47 19,-90 58,-129 37,-39 77,-58 119,-58 31,0 49,16 53,48zm-40 -41c-24,0 -49,25 -76,74 -25,46 -37,84 -37,114 0,24 9,37 26,37 22,0 47,-25 73,-75 25,-46 37,-83 37,-111 0,-26 -8,-39 -23,-39z"/>
  <path class="fil2 str0" d="M6185 2138c-67,125 -100,197 -100,216 0,12 6,18 17,18 19,0 46,-23 82,-71 24,-30 47,-64 68,-100l3 3c-73,125 -134,188 -184,188 -31,0 -46,-21 -46,-61 0,-24 8,-54 25,-88l51 -102 84 -3zm16 -150c11,0 21,4 29,13 8,9 12,20 12,33 0,13 -4,24 -12,33 -8,10 -18,14 -29,14 -11,0 -21,-4 -29,-14 -8,-9 -12,-20 -12,-33 0,-13 4,-23 12,-32 8,-9 18,-14 29,-14z"/>
  <path class="fil2 str0" d="M6481 1905l-200 393c-11,21 -16,40 -16,56 0,12 6,18 17,18 18,0 46,-23 82,-71 24,-31 47,-64 68,-100l3 3c-73,125 -135,188 -184,188 -31,0 -47,-21 -47,-61 0,-24 9,-53 26,-88l164 -333 87 -5z"/>
  <path class="fil2 str0" d="M6543 2217c6,-10 9,-23 9,-37 0,-30 -10,-45 -29,-45 -9,0 -16,5 -22,13 -5,8 -7,17 -7,28 0,15 9,36 28,63 19,28 28,51 28,70 0,32 -13,54 -40,66l1 5c33,-10 67,-34 101,-71 28,-30 53,-66 75,-107l4 2c-68,129 -150,194 -245,194 -25,0 -46,-5 -63,-16 -20,-13 -30,-33 -30,-60 0,-14 4,-27 13,-39 9,-11 20,-17 32,-17 9,0 17,3 23,9 6,7 9,15 9,25 0,9 -2,16 -7,22 -4,7 -11,10 -18,10 -2,0 -6,-2 -12,-4 -2,7 -3,15 -3,21 0,12 4,22 11,30 8,7 18,11 29,11 14,0 27,-6 37,-18 10,-11 15,-26 15,-43 0,-13 -9,-32 -25,-57 -17,-26 -25,-46 -25,-63 0,-25 11,-46 34,-62 19,-13 41,-20 65,-20 19,0 35,4 49,11 18,9 27,24 27,43 0,12 -4,23 -14,31 -9,7 -19,11 -30,11 -2,0 -9,-2 -20,-6z"/>
  <ellipse class="fil4" transform="matrix(6.30227 -6.23535 6.23535 6.30227 1874.37 2947.93)" rx="5" ry="8"/>
 </g>
</svg>
